<?xml version="1.0" encoding="utf-8"?>
<!-- Generator: Adobe Illustrator 25.4.6, SVG Export Plug-In . SVG Version: 6.00 Build 0)  -->
<svg version="1.1" id="ICON" xmlns="http://www.w3.org/2000/svg" xmlns:xlink="http://www.w3.org/1999/xlink" x="0px" y="0px"
	 viewBox="0 0 40 52" style="enable-background:new 0 0 40 52;" xml:space="preserve">
<style type="text/css">
	.st0{fill:#FFFFFF;}
</style>
<g>
	<path class="st0" d="M3.5083008,42.0683594h1.3920898l2.0625,6.0644531l2.0478516-6.0644531h1.3823242v7.1728516H9.465332
		v-4.2333984c0-0.1464844,0.003418-0.3886719,0.0097656-0.7275391s0.0097656-0.7011719,0.0097656-1.0888672l-2.0478516,6.0498047
		H6.4741211l-2.0673828-6.0498047v0.2197266c0,0.1757812,0.0048828,0.4433594,0.0146484,0.8027344
		c0.0097656,0.3603516,0.0146484,0.625,0.0146484,0.7939453v4.2333984H3.5083008V42.0683594z"/>
	<path class="st0" d="M14.9755859,44.1552734c0.3461914,0.1748047,0.6098633,0.4003906,0.7910156,0.6767578
		c0.1748047,0.2636719,0.2915039,0.5712891,0.3496094,0.9228516c0.0517578,0.2412109,0.0776367,0.625,0.0776367,1.1523438
		h-3.8037109c0.0161133,0.5322266,0.140625,0.9589844,0.3730469,1.2802734s0.5927734,0.4824219,1.0805664,0.4824219
		c0.4550781,0,0.8183594-0.1523438,1.0898438-0.4560547c0.1518555-0.1767578,0.2592773-0.3808594,0.3227539-0.6132812h0.8642578
		c-0.0229492,0.1923828-0.0986328,0.40625-0.2270508,0.6425781c-0.128418,0.2353516-0.2719727,0.4287109-0.4301758,0.578125
		c-0.2651367,0.2607422-0.5927734,0.4365234-0.9838867,0.5273438c-0.2099609,0.0517578-0.4472656,0.078125-0.7124023,0.078125
		c-0.6469727,0-1.1953125-0.2363281-1.6450195-0.7109375c-0.449707-0.4726562-0.6743164-1.1367188-0.6743164-1.9892578
		c0-0.8398438,0.2265625-1.5214844,0.6791992-2.0458984c0.453125-0.5244141,1.0449219-0.7861328,1.7763672-0.7861328
		C14.2719727,43.8945312,14.6293945,43.9814453,14.9755859,44.1552734z M15.2905273,46.2089844
		c-0.0356445-0.3808594-0.1176758-0.6855469-0.2470703-0.9130859c-0.2387695-0.4228516-0.637207-0.6347656-1.1958008-0.6347656
		c-0.4003906,0-0.7358398,0.1455078-1.0073242,0.4375c-0.2709961,0.2910156-0.4145508,0.6611328-0.4306641,1.1103516H15.2905273z"/>
	<path class="st0" d="M20.1801758,44.1728516c0.1557617,0.0976562,0.3325195,0.2685547,0.5302734,0.5126953v-2.6416016h0.8452148
		v7.1972656h-0.7915039v-0.7275391c-0.2041016,0.3222656-0.4458008,0.5546875-0.7246094,0.6982422
		c-0.2792969,0.1435547-0.5986328,0.2148438-0.9584961,0.2148438c-0.5805664,0-1.0830078-0.2451172-1.5078125-0.734375
		c-0.4248047-0.4902344-0.637207-1.1425781-0.637207-1.9560547c0-0.7617188,0.1938477-1.421875,0.5810547-1.9794922
		c0.3876953-0.5585938,0.9414062-0.8378906,1.6611328-0.8378906C19.5771484,43.9189453,19.9111328,44.0039062,20.1801758,44.1728516
		z M18.2182617,48.09375c0.2363281,0.3779297,0.6157227,0.5664062,1.137207,0.5664062
		c0.4047852,0,0.7373047-0.1748047,0.9980469-0.5244141c0.2607422-0.3505859,0.3911133-0.8525391,0.3911133-1.5068359
		c0-0.6611328-0.1342773-1.1494141-0.4033203-1.4677734c-0.2685547-0.3164062-0.6005859-0.4755859-0.9956055-0.4755859
		c-0.440918,0-0.7978516,0.1689453-1.0712891,0.5078125c-0.2739258,0.3388672-0.4106445,0.8369141-0.4106445,1.4941406
		C17.8637695,47.2470703,17.9819336,47.7158203,18.2182617,48.09375z"/>
	<path class="st0" d="M22.8691406,42.0683594h0.8935547v0.9960938h-0.8935547V42.0683594z M22.8691406,44.0361328h0.8935547
		v5.2050781h-0.8935547V44.0361328z"/>
	<path class="st0" d="M25.0712891,42.0683594h0.8447266v4.1650391l2.2539062-2.2216797h1.1220703l-2.0097656,1.9443359
		l2.1230469,3.2851562h-1.1230469l-1.6445312-2.6611328l-0.7216797,0.6982422v1.9628906h-0.8447266V42.0683594z"/>
	<path class="st0" d="M32.8935547,46.0761719c0.2011719-0.0253906,0.3369141-0.1103516,0.4052734-0.2529297
		c0.0390625-0.0791016,0.0585938-0.1914062,0.0585938-0.3388672c0-0.2998047-0.1064453-0.5185547-0.3193359-0.6542969
		s-0.5175781-0.203125-0.9140625-0.203125c-0.4580078,0-0.7822266,0.1240234-0.9746094,0.3730469
		c-0.1064453,0.1376953-0.1767578,0.3417969-0.2089844,0.6132812h-0.8203125
		c0.015625-0.6464844,0.2246094-1.0957031,0.6259766-1.3486328c0.4023438-0.2529297,0.8681641-0.3798828,1.3974609-0.3798828
		c0.6142578,0,1.1142578,0.1171875,1.4970703,0.3515625c0.3808594,0.234375,0.5712891,0.5986328,0.5712891,1.09375v3.0126953
		c0,0.0917969,0.0185547,0.1650391,0.0556641,0.2197266c0.0380859,0.0556641,0.1162109,0.0830078,0.2373047,0.0830078
		c0.0390625,0,0.0830078-0.0019531,0.1318359-0.0078125c0.0488281-0.0039062,0.1005859-0.0117188,0.15625-0.0214844v0.6494141
		c-0.1367188,0.0390625-0.2412109,0.0634766-0.3125,0.0732422c-0.0722656,0.0097656-0.1699219,0.0146484-0.2929688,0.0146484
		c-0.3027344,0-0.5224609-0.1074219-0.6591797-0.3222656c-0.0722656-0.1142578-0.1220703-0.2753906-0.1513672-0.4833984
		c-0.1796875,0.234375-0.4365234,0.4375-0.7714844,0.6103516c-0.3359375,0.1728516-0.7050781,0.2587891-1.1083984,0.2587891
		c-0.4853516,0-0.8818359-0.1474609-1.1894531-0.4414062s-0.4609375-0.6621094-0.4609375-1.1044922
		c0-0.484375,0.1513672-0.8603516,0.4541016-1.1269531S31,46.3134766,31.4921875,46.2519531L32.8935547,46.0761719z
		 M31.0429688,48.4511719c0.1855469,0.1455078,0.4052734,0.21875,0.6591797,0.21875
		c0.3085938,0,0.6083984-0.0712891,0.8984375-0.2148438c0.4882812-0.2373047,0.7324219-0.625,0.7324219-1.1650391v-0.7070312
		c-0.1074219,0.0693359-0.2451172,0.1259766-0.4140625,0.171875s-0.3349609,0.078125-0.4970703,0.0976562l-0.53125,0.0683594
		c-0.3183594,0.0419922-0.5576172,0.109375-0.71875,0.2001953c-0.2714844,0.1523438-0.4072266,0.3955078-0.4072266,0.7304688
		C30.7646484,48.1044922,30.8574219,48.3046875,31.0429688,48.4511719z"/>
	<path class="st0" d="M35.6767578,42.0683594h0.8789062v7.1728516h-0.8789062V42.0683594z"/>
</g>
<g>
	<path class="st0" d="M17.916748,17.8559589c4.6503906,0,8.4345703-3.7841806,8.4345703-8.4350595
		c0-4.6513672-3.7841797-8.4355469-8.4345703-8.4355469c-4.6508789,0-8.4350586,3.7841797-8.4350586,8.4355469
		C9.4816895,14.0717783,13.2658691,17.8559589,17.916748,17.8559589z M24.8948364,6.7558603l-6.6988525-2.4805908
		l4.0375977-0.9498901C23.4293213,4.1749887,24.3621216,5.3656015,24.8948364,6.7558603z M21.0234375,2.6270151
		l-4.2692871,1.0043335c-0.0493774,0.0115967-0.0913696,0.0360718-0.1326904,0.0608521l-2.2730713-0.8416748
		c1.0611572-0.5786743,2.2769165-0.9081421,3.5683594-0.9081421C19.0259399,1.9423838,20.0758057,2.1917124,21.0234375,2.6270151z
		 M13.3597412,3.5048227l11.8782959,4.3984985c0.0003052,0.0001221,0.0006714,0.000061,0.0009766,0.0001831
		c0.1014404,0.4901733,0.1552734,0.9975586,0.1552734,1.517395c0,0.6166382-0.083252,1.2128296-0.2246094,1.786438
		L11.7630615,5.1817026C12.2047729,4.5424814,12.7456665,3.9790049,13.3597412,3.5048227z M11.2700195,6.0095835
		l13.6099243,6.1170044c-1.0872803,2.7883301-3.7949829,4.7723398-6.9631958,4.7723398
		c-4.1235352,0-7.4780273-3.3544931-7.4780273-7.4780283C10.4387207,8.1915903,10.7422485,7.0337534,11.2700195,6.0095835z"/>
	<path class="st0" d="M17.6062012,34.7412109H3.255127v-3.57617c0-6.0664062,4.9350586-11.0014648,11.0014648-11.0014648h7.3203125
		c0.2646484,0,0.4785156-0.2143555,0.4785156-0.4785156s-0.2138672-0.4785156-0.4785156-0.4785156h-7.3203125
		c-6.59375,0-11.9584961,5.3647461-11.9584961,11.9584961v4.0546856c0,0.2646484,0.2143555,0.4785156,0.4785156,0.4785156
		h14.8295898c0.2641602,0,0.4785156-0.2138672,0.4785156-0.4785156S17.8703613,34.7412109,17.6062012,34.7412109z"/>
	<path class="st0" d="M36.2019043,26.1562519h-2.1923828c-0.2763672,0-0.5,0.2236328-0.5,0.5v1.6174927
		c-1.0452881-0.3408813-1.8076172-1.3131714-1.8076172-2.4700317v-3.9638672c0-1.9907227-1.6191406-3.6098633-3.609375-3.6098633
		c-1.9912109,0-3.6103516,1.6191406-3.6103516,3.6098633v4.234436c-0.628479,0.255127-1.1810303,0.6604614-1.5898438,1.0175171
		c-0.65625-0.5732422-1.6826172-1.2714844-2.7998047-1.2714844c-2.2700195,0-3.6806641,1.3847656-3.6806641,3.6132812
		c0,0.2401123,0.0293579,0.4731445,0.0777588,0.6982422h0.9963379c-0.0670776-0.2258911-0.1170654-0.4580078-0.1170654-0.6982422
		c0-1.6884766,0.9926758-2.65625,2.7236328-2.65625c1.0273438,0,2.0654297,0.9150391,2.4638672,1.3085938
		c0.1855469,0.1835938,0.4863281,0.1835938,0.671875,0c0.3984375-0.3935547,1.4365234-1.3085938,2.4638672-1.3085938
		c1.7314453,0,2.7236328,0.9677734,2.7236328,2.65625c0,1.2763672-1.1435547,2.4365234-1.3876953,2.66992l-4.1240234,3.9941406
		l-3.1194458-3.0087891h-1.3779907l3.8548584,3.71875c0.1679688,0.1669922,0.3916016,0.2587891,0.6308594,0.2587891
		c0.2421875,0,0.4677734-0.09375,0.6269531-0.2548828l4.1845703-4.0302734c0.3916016-0.375,1.6689453-1.7236309,1.6689453-3.3476543
		c0-2.2285156-1.4101562-3.6132812-3.6806641-3.6132812c-0.0708008,0-0.1399536,0.010437-0.2099609,0.0158081v-3.9962769
		c0-1.4389648,1.1708984-2.6098633,2.6103516-2.6098633c1.4384766,0,2.609375,1.1708984,2.609375,2.6098633v3.9638672
		c0,1.713562,1.2030029,3.1454468,2.8076172,3.5122681v0.3080444h-2.6923828c-0.2763672,0-0.5,0.2236328-0.5,0.5v1.9179668
		c0,0.8271484,0.6728516,1.5,1.5,1.5h4.3847656c0.8271484,0,1.5-0.6728516,1.5-1.5v-4.3857403
		C37.7019043,26.8291035,37.0290527,26.1562519,36.2019043,26.1562519z M36.7019043,32.0419922c0,0.2753906-0.2246094,0.5-0.5,0.5
		h-4.3847656c-0.2753906,0-0.5-0.2246094-0.5-0.5v-1.4179668h2.6923828c0.2763672,0,0.5-0.2236328,0.5-0.5v-2.9677734h1.6923828
		c0.2753906,0,0.5,0.2246094,0.5,0.5V32.0419922z"/>
	<path class="st0" d="M14.9089355,32.0888672h5.5595703c0.2158203,0,0.4052734-0.1445293,0.4619141-0.3535137l0.2402344-0.8886719
		l0.7050781,2.7539043c0.0527344,0.203125,0.2304688,0.3486328,0.4394531,0.359375
		c0.0078125,0.0009766,0.0166016,0.0009766,0.0244141,0.0009766c0.1992188,0,0.3789062-0.1240234,0.4492188-0.3134766
		l0.6494141-1.7626934l1.9619141,0.09375c0.2919922,0.022459,0.4882812-0.1914062,0.5-0.4550781
		c0.0126953-0.2636719-0.1904297-0.4873047-0.4550781-0.5l-2.3115234-0.1103516
		c-0.2119141-0.0332031-0.3984375,0.1152344-0.4716797,0.3125l-0.2392578,0.6503906l-0.7744141-3.0253906
		c-0.0546875-0.2109375-0.2431641-0.3583984-0.4609375-0.3603516c-0.0009766,0-0.0019531,0-0.0029297,0
		c-0.2158203,0-0.4052734,0.1445312-0.4619141,0.3535156l-0.6201172,2.2880859h-5.1933594
		c-0.2641602,0-0.4785156,0.2138672-0.4785156,0.4785156S14.6447754,32.0888672,14.9089355,32.0888672z"/>
</g>
</svg>
