<svg xmlns="http://www.w3.org/2000/svg" width="27.365" height="28.803" viewBox="0 0 27.365 28.803">
  <g id="ePim_Blau_RGB_Beschriftet" transform="translate(-3.38 -0.26)">
    <g id="Gruppe_629" data-name="Gruppe 629" transform="translate(3.38 0.26)">
      <g id="Gruppe_608" data-name="Gruppe 608" transform="translate(5.094)">
        <path id="Pfad_280" data-name="Pfad 280" d="M21.461,22.53a11.172,11.172,0,0,1-3.021-.418,11.07,11.07,0,1,1,3.021.418ZM21.429.988a10.4,10.4,0,0,0-9.048,15.5A10.4,10.4,0,0,0,30.509,6.295,10.332,10.332,0,0,0,24.25,1.378,10.442,10.442,0,0,0,21.429.988Z" transform="translate(-10.313 -0.26)" fill="#0069b4"/>
      </g>
      <g id="Gruppe_609" data-name="Gruppe 609" transform="translate(5.094)">
        <path id="Pfad_281" data-name="Pfad 281" d="M21.461,22.53a11.172,11.172,0,0,1-3.021-.418,11.07,11.07,0,1,1,3.021.418ZM21.429.988a10.4,10.4,0,0,0-9.048,15.5A10.4,10.4,0,0,0,30.509,6.295,10.332,10.332,0,0,0,24.25,1.378,10.442,10.442,0,0,0,21.429.988Z" transform="translate(-10.313 -0.26)" fill="#0069b4"/>
      </g>
      <g id="Gruppe_610" data-name="Gruppe 610" transform="translate(21.044 20.616)">
        <line id="Linie_154" data-name="Linie 154" x2="4.541" y2="7.451" transform="translate(0.367 0.368)" fill="#fff"/>
        <path id="Pfad_282" data-name="Pfad 282" d="M36.925,36.5a.366.366,0,0,1-.314-.177l-4.54-7.451a.367.367,0,0,1,.627-.382l4.54,7.451a.368.368,0,0,1-.314.558Z" transform="translate(-32.017 -28.316)" fill="#0069b4"/>
      </g>
      <g id="Gruppe_615" data-name="Gruppe 615" transform="translate(0 7.409)">
        <g id="Gruppe_611" data-name="Gruppe 611">
          <rect id="Rechteck_692" data-name="Rechteck 692" width="0.111" height="7.508" fill="#0069b4"/>
        </g>
        <g id="Gruppe_612" data-name="Gruppe 612" transform="translate(3.334)">
          <rect id="Rechteck_693" data-name="Rechteck 693" width="0.513" height="7.508" fill="#0069b4"/>
        </g>
        <g id="Gruppe_613" data-name="Gruppe 613" transform="translate(1.953)">
          <rect id="Rechteck_694" data-name="Rechteck 694" width="0.691" height="7.508" fill="#0069b4"/>
        </g>
        <g id="Gruppe_614" data-name="Gruppe 614" transform="translate(0.465)">
          <rect id="Rechteck_695" data-name="Rechteck 695" width="0.974" height="7.508" fill="#0069b4"/>
        </g>
      </g>
      <g id="Gruppe_626" data-name="Gruppe 626" transform="translate(9.204 4.624)">
        <g id="Gruppe_616" data-name="Gruppe 616" transform="translate(12.247)">
          <rect id="Rechteck_696" data-name="Rechteck 696" width="0.728" height="12.356" fill="#0069b4"/>
        </g>
        <g id="Gruppe_617" data-name="Gruppe 617" transform="translate(10.615)">
          <rect id="Rechteck_697" data-name="Rechteck 697" width="0.379" height="12.356" fill="#0069b4"/>
        </g>
        <g id="Gruppe_618" data-name="Gruppe 618" transform="translate(11.656)">
          <rect id="Rechteck_698" data-name="Rechteck 698" width="0.182" height="12.356" fill="#0069b4"/>
        </g>
        <g id="Gruppe_619" data-name="Gruppe 619" transform="translate(7.76)">
          <rect id="Rechteck_699" data-name="Rechteck 699" width="0.378" height="12.356" fill="#0069b4"/>
        </g>
        <g id="Gruppe_620" data-name="Gruppe 620">
          <rect id="Rechteck_700" data-name="Rechteck 700" width="0.284" height="12.356" fill="#0069b4"/>
        </g>
        <g id="Gruppe_621" data-name="Gruppe 621" transform="translate(9.013)">
          <rect id="Rechteck_701" data-name="Rechteck 701" width="0.612" height="12.356" fill="#0069b4"/>
        </g>
        <g id="Gruppe_622" data-name="Gruppe 622" transform="translate(5.488)">
          <rect id="Rechteck_702" data-name="Rechteck 702" width="1.544" height="12.356" fill="#0069b4"/>
        </g>
        <g id="Gruppe_623" data-name="Gruppe 623" transform="translate(4.671)">
          <rect id="Rechteck_703" data-name="Rechteck 703" width="0.379" height="12.356" fill="#0069b4"/>
        </g>
        <g id="Gruppe_624" data-name="Gruppe 624" transform="translate(1.934)">
          <rect id="Rechteck_704" data-name="Rechteck 704" width="1.544" height="12.356" fill="#0069b4"/>
        </g>
        <g id="Gruppe_625" data-name="Gruppe 625" transform="translate(0.808)">
          <rect id="Rechteck_705" data-name="Rechteck 705" width="0.688" height="12.356" fill="#0069b4"/>
        </g>
      </g>
      <g id="Gruppe_627" data-name="Gruppe 627" transform="translate(7.175 5.597)">
        <path id="Pfad_283" data-name="Pfad 283" d="M14.281,18.958V7.876a9.612,9.612,0,0,0-1.137,2.164v6.73a9.757,9.757,0,0,0,.627,1.376Q14.008,18.568,14.281,18.958Z" transform="translate(-13.144 -7.876)" fill="#0069b4"/>
      </g>
      <g id="Gruppe_628" data-name="Gruppe 628" transform="translate(4.36 7.409)">
        <path id="Pfad_284" data-name="Pfad 284" d="M9.93,10.342H9.313V17.85h.624A11.849,11.849,0,0,1,9.93,10.342Z" transform="translate(-9.313 -10.342)" fill="#0069b4"/>
      </g>
    </g>
  </g>
</svg>
