<svg xmlns="http://www.w3.org/2000/svg" width="16.813" height="16.813" viewBox="0 0 16.813 16.813">
  <g id="Icon_ionic-ios-close-circle-outline" data-name="Icon ionic-ios-close-circle-outline" transform="translate(-3.375 -3.375)">
    <path id="Pfad_14" data-name="Pfad 14" d="M18.645,17.729l-2.13-2.13,2.13-2.13a.646.646,0,0,0-.913-.913l-2.13,2.13-2.13-2.13a.646.646,0,0,0-.913.913l2.13,2.13-2.13,2.13a.624.624,0,0,0,0,.913.642.642,0,0,0,.913,0l2.13-2.13,2.13,2.13a.649.649,0,0,0,.913,0A.642.642,0,0,0,18.645,17.729Z" transform="translate(-3.82 -3.818)" fill="#022a47"/>
    <path id="Pfad_15" data-name="Pfad 15" d="M11.781,4.507a7.272,7.272,0,1,1-5.145,2.13,7.226,7.226,0,0,1,5.145-2.13m0-1.132a8.406,8.406,0,1,0,8.406,8.406,8.4,8.4,0,0,0-8.406-8.406Z" transform="translate(0 0)" fill="#022a47"/>
  </g>
</svg>
