<svg xmlns="http://www.w3.org/2000/svg" width="15.27" height="14.01" viewBox="0 0 15.27 14.01">
  <path id="Icon_material-favorite-border" data-name="Icon material-favorite-border" d="M14.07,4.5a4.572,4.572,0,0,0-3.436,1.6A4.572,4.572,0,0,0,7.2,4.5,4.158,4.158,0,0,0,3,8.7c0,2.886,2.6,5.237,6.528,8.811l1.107,1L11.742,17.5c3.932-3.565,6.528-5.917,6.528-8.8A4.158,4.158,0,0,0,14.07,4.5ZM10.711,16.372l-.076.076-.076-.076C6.924,13.081,4.527,10.906,4.527,8.7A2.609,2.609,0,0,1,7.2,6.027a2.985,2.985,0,0,1,2.726,1.8h1.428a2.966,2.966,0,0,1,2.718-1.8A2.609,2.609,0,0,1,16.743,8.7C16.743,10.906,14.345,13.081,10.711,16.372Z" transform="translate(-3 -4.5)" fill="#b6c0c6"/>
</svg>
