<?xml version="1.0" encoding="utf-8"?>
<!-- Generator: Adobe Illustrator 25.4.6, SVG Export Plug-In . SVG Version: 6.00 Build 0)  -->
<svg version="1.1" id="ICON" xmlns="http://www.w3.org/2000/svg" xmlns:xlink="http://www.w3.org/1999/xlink" x="0px" y="0px"
	 viewBox="0 0 40 52" style="enable-background:new 0 0 40 52;" xml:space="preserve">
<style type="text/css">
	.st0{fill:#FFFFFF;}
</style>
<g>
	<path class="st0" d="M3.347168,42.0683594h3.2099609c0.6342773,0,1.1464844,0.1796875,1.5366211,0.5400391
		c0.3901367,0.359375,0.5854492,0.8642578,0.5854492,1.515625c0,0.5595703-0.1743164,1.046875-0.5224609,1.4628906
		c-0.3481445,0.4140625-0.8808594,0.6220703-1.5981445,0.6220703H4.3188477v3.0322266H3.347168V42.0683594z M7.1162109,43.0546875
		c-0.2133789-0.1005859-0.5058594-0.1513672-0.8774414-0.1513672H4.3188477v2.4853516h1.9199219
		c0.4326172,0,0.7841797-0.0927734,1.0541992-0.2783203s0.4047852-0.5126953,0.4047852-0.9814453
		C7.6977539,43.6015625,7.5039062,43.2431641,7.1162109,43.0546875z"/>
	<path class="st0" d="M9.8071289,42.0439453h0.8789062v2.6757812c0.2084961-0.2636719,0.3955078-0.4492188,0.5615234-0.5566406
		c0.2832031-0.1855469,0.6362305-0.2783203,1.0595703-0.2783203c0.7583008,0,1.2729492,0.265625,1.5429688,0.7958984
		c0.1464844,0.2900391,0.2197266,0.6914062,0.2197266,1.2060547v3.3544922h-0.9033203v-3.2958984
		c0-0.3837891-0.0488281-0.6660156-0.1464844-0.8447266c-0.159668-0.2861328-0.4589844-0.4296875-0.8984375-0.4296875
		c-0.3647461,0-0.6948242,0.125-0.9912109,0.3759766s-0.4443359,0.7246094-0.4443359,1.4208984v2.7734375H9.8071289V42.0439453z"/>
	<path class="st0" d="M18.1713867,46.0761719c0.2016602-0.0253906,0.3369141-0.1103516,0.4052734-0.2529297
		c0.0390625-0.0791016,0.0585938-0.1914062,0.0585938-0.3388672c0-0.2998047-0.1064453-0.5185547-0.3193359-0.6542969
		s-0.5170898-0.203125-0.9135742-0.203125c-0.4580078,0-0.7827148,0.1240234-0.9746094,0.3730469
		c-0.1069336,0.1376953-0.1767578,0.3417969-0.2094727,0.6132812h-0.8203125
		c0.0161133-0.6464844,0.2250977-1.0957031,0.6264648-1.3486328c0.4018555-0.2529297,0.8676758-0.3798828,1.3974609-0.3798828
		c0.6142578,0,1.1137695,0.1171875,1.4970703,0.3515625c0.3803711,0.234375,0.5708008,0.5986328,0.5708008,1.09375v3.0126953
		c0,0.0917969,0.0185547,0.1650391,0.0561523,0.2197266c0.0375977,0.0556641,0.1162109,0.0830078,0.2368164,0.0830078
		c0.0390625,0,0.0830078-0.0019531,0.1318359-0.0078125c0.0488281-0.0039062,0.1010742-0.0117188,0.15625-0.0214844v0.6494141
		c-0.1367188,0.0390625-0.2407227,0.0634766-0.3125,0.0732422s-0.1694336,0.0146484-0.2929688,0.0146484
		c-0.3027344,0-0.5224609-0.1074219-0.6591797-0.3222656c-0.0717773-0.1142578-0.1220703-0.2753906-0.1513672-0.4833984
		c-0.1791992,0.234375-0.4360352,0.4375-0.7714844,0.6103516s-0.7045898,0.2587891-1.1083984,0.2587891
		c-0.4848633,0-0.8813477-0.1474609-1.1889648-0.4414062s-0.4614258-0.6621094-0.4614258-1.1044922
		c0-0.484375,0.1513672-0.8603516,0.4541016-1.1269531s0.699707-0.4306641,1.1914062-0.4921875L18.1713867,46.0761719z
		 M16.3208008,48.4511719c0.1855469,0.1455078,0.4052734,0.21875,0.6591797,0.21875
		c0.309082,0,0.6088867-0.0712891,0.8984375-0.2148438c0.4882812-0.2373047,0.7324219-0.625,0.7324219-1.1650391v-0.7070312
		c-0.1074219,0.0693359-0.2451172,0.1259766-0.4140625,0.171875s-0.3349609,0.078125-0.4970703,0.0976562l-0.53125,0.0683594
		c-0.3183594,0.0419922-0.5576172,0.109375-0.7182617,0.2001953c-0.2719727,0.1523438-0.4077148,0.3955078-0.4077148,0.7304688
		C16.0424805,48.1044922,16.1352539,48.3046875,16.3208008,48.4511719z"/>
	<path class="st0" d="M20.9545898,44.0117188h0.8354492v0.9033203c0.0683594-0.1757812,0.2353516-0.3896484,0.5029297-0.6425781
		c0.2666016-0.2519531,0.5742188-0.3779297,0.9228516-0.3779297c0.015625,0,0.0439453,0.0019531,0.0830078,0.0048828
		s0.1054688,0.0097656,0.2001953,0.0195312v0.9277344c-0.0527344-0.0097656-0.1005859-0.0166016-0.1445312-0.0195312
		s-0.0917969-0.0048828-0.1435547-0.0048828c-0.4433594,0-0.7832031,0.1425781-1.0205078,0.4267578
		c-0.2382812,0.2851562-0.3564453,0.6132812-0.3564453,0.984375v3.0078125h-0.8793945V44.0117188z"/>
	<path class="st0" d="M24.2607422,44.0117188h0.8691406v0.7421875c0.2080078-0.2568359,0.3964844-0.4443359,0.5664062-0.5615234
		c0.2890625-0.1982422,0.6181641-0.2978516,0.9863281-0.2978516c0.4160156,0,0.7519531,0.1025391,1.0058594,0.3076172
		c0.1425781,0.1171875,0.2734375,0.2900391,0.390625,0.5175781c0.1953125-0.2802734,0.4248047-0.4873047,0.6884766-0.6230469
		c0.2636719-0.1347656,0.5595703-0.2021484,0.8886719-0.2021484c0.703125,0,1.1816406,0.2539062,1.4355469,0.7617188
		c0.1367188,0.2734375,0.2050781,0.6416016,0.2050781,1.1035156v3.4814453h-0.9130859v-3.6328125
		c0-0.3486328-0.0869141-0.5878906-0.2617188-0.7177734c-0.1738281-0.1298828-0.3867188-0.1953125-0.6367188-0.1953125
		c-0.3457031,0-0.6425781,0.1152344-0.8916016,0.3466797s-0.3730469,0.6171875-0.3730469,1.1572266v3.0419922h-0.8935547V45.828125
		c0-0.3544922-0.0429688-0.6132812-0.1269531-0.7763672c-0.1337891-0.2441406-0.3828125-0.3662109-0.7470703-0.3662109
		c-0.3320312,0-0.6337891,0.1289062-0.90625,0.3857422c-0.2714844,0.2568359-0.4072266,0.7226562-0.4072266,1.3964844v2.7734375
		h-0.8789062V44.0117188z"/>
	<path class="st0" d="M35.3935547,46.0761719c0.2011719-0.0253906,0.3369141-0.1103516,0.4052734-0.2529297
		c0.0390625-0.0791016,0.0585938-0.1914062,0.0585938-0.3388672c0-0.2998047-0.1064453-0.5185547-0.3193359-0.6542969
		s-0.5175781-0.203125-0.9140625-0.203125c-0.4580078,0-0.7822266,0.1240234-0.9746094,0.3730469
		c-0.1064453,0.1376953-0.1767578,0.3417969-0.2089844,0.6132812h-0.8203125
		c0.015625-0.6464844,0.2246094-1.0957031,0.6259766-1.3486328c0.4023438-0.2529297,0.8681641-0.3798828,1.3974609-0.3798828
		c0.6142578,0,1.1142578,0.1171875,1.4970703,0.3515625c0.3808594,0.234375,0.5712891,0.5986328,0.5712891,1.09375v3.0126953
		c0,0.0917969,0.0185547,0.1650391,0.0556641,0.2197266c0.0380859,0.0556641,0.1162109,0.0830078,0.2373047,0.0830078
		c0.0390625,0,0.0830078-0.0019531,0.1318359-0.0078125c0.0488281-0.0039062,0.1005859-0.0117188,0.15625-0.0214844v0.6494141
		c-0.1367188,0.0390625-0.2412109,0.0634766-0.3125,0.0732422c-0.0722656,0.0097656-0.1699219,0.0146484-0.2929688,0.0146484
		c-0.3027344,0-0.5224609-0.1074219-0.6591797-0.3222656c-0.0722656-0.1142578-0.1220703-0.2753906-0.1513672-0.4833984
		c-0.1796875,0.234375-0.4365234,0.4375-0.7714844,0.6103516c-0.3359375,0.1728516-0.7050781,0.2587891-1.1083984,0.2587891
		c-0.4853516,0-0.8818359-0.1474609-1.1894531-0.4414062s-0.4609375-0.6621094-0.4609375-1.1044922
		c0-0.484375,0.1513672-0.8603516,0.4541016-1.1269531S33.5,46.3134766,33.9921875,46.2519531L35.3935547,46.0761719z
		 M33.5429688,48.4511719c0.1855469,0.1455078,0.4052734,0.21875,0.6591797,0.21875
		c0.3085938,0,0.6083984-0.0712891,0.8984375-0.2148438c0.4882812-0.2373047,0.7324219-0.625,0.7324219-1.1650391v-0.7070312
		c-0.1074219,0.0693359-0.2451172,0.1259766-0.4140625,0.171875s-0.3349609,0.078125-0.4970703,0.0976562l-0.53125,0.0683594
		c-0.3183594,0.0419922-0.5576172,0.109375-0.71875,0.2001953c-0.2714844,0.1523438-0.4072266,0.3955078-0.4072266,0.7304688
		C33.2646484,48.1044922,33.3574219,48.3046875,33.5429688,48.4511719z"/>
</g>
<g>
	<path class="st0" d="M13.75,23.4223595L13.75,23.4223595L13.75,23.4223595c-1.2999992-1.2999992-3-2-4.8000002-2
		s-3.5,0.7000008-4.8000002,2s-2,3-2,4.7999992s0.6999998,3.5,2,4.7999992s3,2,4.8000002,2
		c1.6999998,0,3.499999-0.7000008,4.8000002-2c1.2999992-1.2999992,2-3,2-4.7999992
		C15.6499996,26.4223595,14.9499989,24.7223587,13.75,23.4223595L13.75,23.4223595z M3.2499995,28.2223587
		c0-1.5,0.5999999-3,1.7000003-4.1000004s2.5-1.7000008,4.0999994-1.7000008c1.3999996,0,2.6000004,0.5,3.7000008,1.3999996
		l-8.2000008,8.1000023C3.6499996,30.9223595,3.2499995,29.6223602,3.2499995,28.2223587z M13.0499992,32.322361
		c-2.1000004,2.0999985-5.5,2.2000008-7.8000002,0.2999992l8.1000013-8.1000004C14.25,25.5223598,14.75,26.8223591,14.75,28.2223587
		C14.6499996,29.822361,14.0499992,31.2223587,13.0499992,32.322361z"/>
	<path class="st0" d="M10.3499994,16.7223587l6.3000002-6.3000002l1.2999992,1.3000002
		c0.2000008-0.2999992,0.3999996-0.5,0.6000004-0.8000002l-6.3000011-6.3000002
		c-2.1000004-2.0999999-5.6000004-2.0999999-7.6999998,0s-2.0999999,5.6000004,0,7.6999989l9.4000006,9.3999996
		c0.7999992,0.7999992,1.7000008,1.2999992,2.7000008,1.5v-1c-0.7000008-0.2000008-1.3999996-0.6000004-2-1.1000004
		L10.3499994,16.7223587z M5.25,5.3223591c0.8999996-0.8999996,2-1.3000002,3.1999998-1.3000002
		c1.1000004,0,2.3000002,0.3999996,3.1999998,1.3000002l4.2999992,4.3000002l-6.3000002,6.3000002l-4.3000002-4.2999992
		C3.5499997,9.9223595,3.5499997,7.1223593,5.25,5.3223591z"/>
	<path class="st0" d="M32.3499985,9.3223591V7.5223589h0.8000031c0.2999954,0,0.5-0.1999998,0.5-0.5V2.5223594
		c0-0.3000002-0.2000046-0.5-0.5-0.5H21.8500004c-0.2999992,0-0.5,0.1999998-0.5,0.5v4.5000005c0,0.3000002,0.2000008,0.5,0.5,0.5
		h0.7999992v1.8999996c-3.1000004,0.5-5.5,3.2000008-5.5,6.3999996V35.322361c0,0.2999992,0.2000008,0.5,0.5,0.5h19.6999989
		c0.3000031,0,0.5-0.2000008,0.5-0.5V15.6223602C37.8499985,12.4223595,35.4499969,9.7223597,32.3499985,9.3223591z
		 M22.3500004,6.5223598v-3.5h10.3000011v3.5H22.3500004z M36.8499985,34.822361H18.1499996v-5.2999992h8.7000008
		c0.2999992,0,0.5-0.2000008,0.5-0.5V17.3223591c0-0.2999992-0.2000008-0.5-0.5-0.5h-8.7000008v-0.8999996
		c0-2.8999996,2.2000008-5.3000002,5.1000004-5.5c0.2999992,0,0.5-0.1999998,0.5-0.5V7.7223597h7.6000004v2.1999998
		c0,0.3000002,0.2000008,0.5,0.5,0.5c2.8000011,0.1000004,4.9999981,2.5,4.9999981,5.2999992V34.822361z M18.4499989,28.5223579
		V17.8223591h8v10.8000011h-8V28.5223579z"/>
	<path class="st0" d="M10.1499996,6.8223591c0.1999998,0.1999998,0.5,0.1999998,0.6999998,0s0.1999998-0.5,0-0.6999998
		c-1.3000002-1.3000002-3.4000006-1.3000002-4.8000002,0c-0.1999998,0.1999998-0.1999998,0.5,0,0.6999998
		C6.1499996,6.9223595,6.249999,6.9223595,6.4499989,6.9223595s0.3000002,0,0.3999996-0.1000004
		C7.75,5.9223595,9.25,5.9223595,10.1499996,6.8223591z"/>
</g>
</svg>
